<svg width="33" height="33" viewBox="0 0 33 33" fill="none" xmlns="http://www.w3.org/2000/svg">
<g clip-path="url(#clip0_61_608)">
<path d="M25.1799 11.073C24.9668 10.8659 24.6677 10.7718 24.3751 10.8199C24.0819 10.8679 23.8287 11.0519 23.6927 11.316C23.225 12.2247 22.6309 13.0598 21.9319 13.798C22.0015 13.2647 22.0366 12.7283 22.0366 12.1904C22.0366 11.1584 21.8983 10.0963 21.6254 9.03335C20.728 5.54204 18.3749 2.58948 15.1695 0.932789C14.8905 0.788601 14.558 0.793664 14.2834 0.946289C14.0089 1.09898 13.829 1.37891 13.8044 1.69204C13.5545 4.86479 11.9203 7.75129 9.31823 9.61329C9.2838 9.6381 9.24961 9.66323 9.21542 9.68823C9.14461 9.74004 9.07786 9.78904 9.01548 9.83016C9.00573 9.83666 8.99605 9.84329 8.98655 9.8501C7.35005 11.0218 5.99973 12.5837 5.08142 14.3674C4.1483 16.1817 3.67517 18.1286 3.67517 20.1539C3.67517 21.1857 3.81348 22.2477 4.0863 23.3109C5.52598 28.9144 10.5687 32.828 16.3494 32.828C23.3375 32.828 29.0228 27.1424 29.0228 20.1539C29.0228 16.7077 27.6581 13.4827 25.1799 11.073Z" fill="#28A263"/>
<circle cx="15.4079" cy="19.6519" r="3.76471" fill="white"/>
</g>
<defs>
<clipPath id="clip0_61_608">
<rect width="32" height="32" fill="white" transform="translate(0.349121 0.828125)"/>
</clipPath>
</defs>
</svg>
