<svg width="277" height="70" viewBox="0 0 277 70" fill="none" xmlns="http://www.w3.org/2000/svg">
<g clip-path="url(#clip0_61_222)">
<g clip-path="url(#clip1_61_222)">
<path d="M140.445 26.0001L139.389 26V49.9999L140.445 50V26.0001Z" fill="black"/>
<path d="M151 45.24H153.167V32.48L158.196 45.24H160.792L165.8 32.52V45.24H167.967V30H164.594L159.504 43.18L154.393 30H151V45.24ZM173.685 45.54C175.484 45.54 176.996 44.76 177.978 43.46V45.24H180.063V38.98C180.063 35.86 178.039 33.98 174.952 33.98C172.172 33.98 170.21 35.66 169.882 37.66H172.029C172.315 36.48 173.358 35.82 174.789 35.82C176.812 35.82 177.916 36.9 177.978 38.8H174.278C171.313 38.8 169.555 40.04 169.555 42.28C169.555 44.3 171.129 45.54 173.685 45.54ZM171.62 42.12C171.62 41.06 172.52 40.48 174.666 40.48H177.916C177.569 42.54 175.77 43.74 173.95 43.74C172.54 43.74 171.62 43.1 171.62 42.12ZM182.28 45.24H184.365V39.94C184.365 37.48 185.428 35.9 187.431 35.9C188.065 35.9 188.637 36.1 188.903 36.34V34.28C188.494 34.08 188.106 33.98 187.411 33.98C186.143 33.98 184.998 34.7 184.365 35.82V34.28H182.28V45.24ZM190.28 45.24H192.365V42.44L194.757 40.06L198.436 45.24H200.848L196.106 38.72L200.603 34.28H197.884L192.365 39.8V30H190.28V45.24ZM206.626 45.54C209.284 45.54 211.492 43.82 211.839 41.64H209.713C209.345 42.86 208.098 43.68 206.626 43.68C204.521 43.68 203.172 42.36 203.008 40.22H211.962V39.84C211.962 35.86 209.325 33.98 206.442 33.98C203.131 33.98 200.984 36.5 200.984 39.76C200.984 43.26 203.233 45.54 206.626 45.54ZM203.131 38.52C203.54 36.9 204.766 35.82 206.442 35.82C208.2 35.82 209.447 36.88 209.713 38.52H203.131ZM217.243 45.54C218.081 45.54 218.899 45.22 219.287 44.74V43.06C218.899 43.42 218.367 43.66 217.774 43.66C216.855 43.66 216.487 43.18 216.487 42.02V35.98H219.41V34.28H216.487V31.52H214.401V34.28H212.521V35.98H214.401V42.48C214.401 44.4 215.464 45.54 217.243 45.54ZM226.716 45.54C229.884 45.54 232.031 43.04 232.031 39.74C232.031 36.44 229.884 33.98 226.716 33.98C225.142 33.98 223.854 34.6 222.934 35.64V34.28H220.849V50H222.934V43.86C223.854 44.9 225.142 45.54 226.716 45.54ZM222.934 39.74C222.934 37.44 224.345 35.8 226.45 35.8C228.576 35.8 230.048 37.5 230.048 39.74C230.048 42 228.576 43.7 226.45 43.7C224.345 43.7 222.934 42.06 222.934 39.74ZM233.859 45.24H235.944V30H233.859V45.24ZM241.965 45.54C243.764 45.54 245.276 44.76 246.258 43.46V45.24H248.343V38.98C248.343 35.86 246.319 33.98 243.232 33.98C240.452 33.98 238.49 35.66 238.162 37.66H240.309C240.595 36.48 241.638 35.82 243.069 35.82C245.092 35.82 246.196 36.9 246.258 38.8H242.558C239.593 38.8 237.835 40.04 237.835 42.28C237.835 44.3 239.409 45.54 241.965 45.54ZM239.9 42.12C239.9 41.06 240.799 40.48 242.946 40.48H246.196C245.849 42.54 244.05 43.74 242.23 43.74C240.82 43.74 239.9 43.1 239.9 42.12ZM255.59 45.54C258.289 45.54 260.353 43.88 260.844 41.46H258.718C258.371 42.84 257.124 43.68 255.59 43.68C253.526 43.68 251.993 42.06 251.993 39.74C251.993 37.46 253.505 35.82 255.59 35.82C257.083 35.82 258.33 36.64 258.698 37.98H260.844C260.353 35.54 258.227 33.98 255.59 33.98C252.299 33.98 249.989 36.48 249.989 39.74C249.989 43.16 252.401 45.54 255.59 45.54ZM267.665 45.54C270.322 45.54 272.53 43.82 272.877 41.64H270.751C270.383 42.86 269.136 43.68 267.665 43.68C265.559 43.68 264.21 42.36 264.046 40.22H273V39.84C273 35.86 270.363 33.98 267.481 33.98C264.169 33.98 262.023 36.5 262.023 39.76C262.023 43.26 264.271 45.54 267.665 45.54ZM264.169 38.52C264.578 36.9 265.804 35.82 267.481 35.82C269.239 35.82 270.486 36.88 270.751 38.52H264.169Z" fill="black"/>
</g>
<g clip-path="url(#clip2_61_222)">
<path d="M38.8307 29.073C38.6176 28.8659 38.3185 28.7718 38.0259 28.8199C37.7327 28.8679 37.4795 29.0519 37.3435 29.316C36.8757 30.2247 36.2816 31.0598 35.5826 31.798C35.6523 31.2647 35.6874 30.7283 35.6874 30.1904C35.6874 29.1584 35.5491 28.0963 35.2761 27.0334C34.3787 23.542 32.0256 20.5895 28.8203 18.9328C28.5412 18.7886 28.2087 18.7937 27.9342 18.9463C27.6596 19.099 27.4798 19.3789 27.4552 19.692C27.2053 22.8648 25.5711 25.7513 22.969 27.6133C22.9346 27.6381 22.9004 27.6632 22.8662 27.6882C22.7954 27.74 22.7286 27.789 22.6662 27.8302C22.6565 27.8367 22.6468 27.8433 22.6373 27.8501C21.0008 29.0218 19.6505 30.5837 18.7322 32.3674C17.7991 34.1817 17.3259 36.1286 17.3259 38.1539C17.3259 39.1857 17.4642 40.2477 17.7371 41.3109C19.1767 46.9144 24.2195 50.828 30.0001 50.828C36.9883 50.828 42.6736 45.1424 42.6736 38.1539C42.6736 34.7077 41.3088 31.4827 38.8307 29.073Z" fill="#28A263"/>
<circle cx="29.0589" cy="37.6519" r="3.76471" fill="white"/>
</g>
<path d="M131.673 28.8022V26.7506H131.037V26.2966H132.82V26.7506H132.194V28.8022H131.673ZM133.078 28.8022V26.2966H133.582L134.521 27.541H134.285L135.197 26.2966H135.701V28.8022H135.18V26.8717L135.388 26.9188L134.423 28.1632H134.356L133.424 26.9188L133.599 26.8717V28.8022H133.078Z" fill="black"/>
<path d="M57.088 47.6161C55.968 47.6161 54.912 47.4161 53.92 47.0161C52.944 46.6001 52.096 46.0161 51.376 45.2641C50.672 44.5121 50.144 43.6241 49.792 42.6001L52.84 41.2321C53.288 42.2081 53.904 42.9761 54.688 43.5361C55.488 44.0961 56.368 44.3761 57.328 44.3761C57.84 44.3761 58.28 44.2961 58.648 44.1361C59.016 43.9761 59.304 43.7601 59.512 43.4881C59.72 43.2001 59.824 42.8641 59.824 42.4801C59.824 42.0641 59.696 41.7121 59.44 41.4241C59.184 41.1201 58.784 40.8801 58.24 40.7041L54.736 39.5521C53.312 39.0881 52.24 38.4321 51.52 37.5841C50.8 36.7201 50.44 35.6881 50.44 34.4881C50.44 33.4321 50.696 32.5041 51.208 31.7041C51.736 30.9041 52.464 30.2801 53.392 29.8321C54.336 29.3841 55.416 29.1601 56.632 29.1601C57.704 29.1601 58.696 29.3441 59.608 29.7121C60.52 30.0801 61.304 30.6001 61.96 31.2721C62.632 31.9441 63.136 32.7521 63.472 33.6961L60.448 35.0641C60.112 34.2321 59.608 33.5841 58.936 33.1201C58.264 32.6401 57.496 32.4001 56.632 32.4001C56.136 32.4001 55.696 32.4801 55.312 32.6401C54.928 32.8001 54.632 33.0321 54.424 33.3361C54.216 33.6241 54.112 33.9601 54.112 34.3441C54.112 34.7601 54.248 35.1281 54.52 35.4481C54.792 35.7521 55.2 35.9921 55.744 36.1681L59.176 37.2721C60.616 37.7361 61.688 38.3841 62.392 39.2161C63.112 40.0481 63.472 41.0641 63.472 42.2641C63.472 43.3041 63.2 44.2321 62.656 45.0481C62.112 45.8481 61.36 46.4801 60.4 46.9441C59.456 47.3921 58.352 47.6161 57.088 47.6161ZM66.1231 47.3281V29.4481H72.9871C74.2191 29.4481 75.3071 29.6641 76.2511 30.0961C77.2111 30.5281 77.9631 31.1681 78.5071 32.0161C79.0511 32.8641 79.3231 33.9121 79.3231 35.1601C79.3231 36.3761 79.0431 37.4081 78.4831 38.2561C77.9391 39.1041 77.1871 39.7521 76.2271 40.2001C75.2831 40.6321 74.2031 40.8481 72.9871 40.8481H69.8431V47.3281H66.1231ZM69.8431 37.6081H73.0111C73.5391 37.6081 73.9951 37.5041 74.3791 37.2961C74.7631 37.0881 75.0591 36.8001 75.2671 36.4321C75.4911 36.0641 75.6031 35.6401 75.6031 35.1601C75.6031 34.6641 75.4911 34.2321 75.2671 33.8641C75.0591 33.4961 74.7631 33.2081 74.3791 33.0001C73.9951 32.7921 73.5391 32.6881 73.0111 32.6881H69.8431V37.6081ZM78.9593 47.3281L85.0073 29.4481H89.9513L95.9993 47.3281H91.9433L90.7433 43.6801H84.1913L82.9913 47.3281H78.9593ZM85.2233 40.4401H89.7113L86.9753 31.9921H87.9833L85.2233 40.4401ZM97.8574 47.3281V29.4481H104.697C105.929 29.4481 107.017 29.6641 107.961 30.0961C108.921 30.5281 109.673 31.1681 110.217 32.0161C110.761 32.8641 111.033 33.9121 111.033 35.1601C111.033 36.3761 110.753 37.4161 110.193 38.2801C109.633 39.1281 108.881 39.7681 107.937 40.2001L112.017 47.3281H107.841L103.425 39.4321L105.825 40.8481H101.577V47.3281H97.8574ZM101.577 37.6081H104.721C105.249 37.6081 105.705 37.5041 106.089 37.2961C106.473 37.0881 106.769 36.8001 106.977 36.4321C107.201 36.0641 107.313 35.6401 107.313 35.1601C107.313 34.6641 107.201 34.2321 106.977 33.8641C106.769 33.4961 106.473 33.2081 106.089 33.0001C105.705 32.7921 105.249 32.6881 104.721 32.6881H101.577V37.6081ZM113.865 47.3281V29.4481H117.585V38.4001L116.553 38.0401L123.705 29.4481H128.361L121.281 37.9921L121.497 35.3521L128.505 47.3281H124.161L119.793 39.7681L117.585 42.4321V47.3281H113.865Z" fill="black"/>
</g>
<defs>
<clipPath id="clip0_61_222">
<rect width="277" height="70" fill="white"/>
</clipPath>
<clipPath id="clip1_61_222">
<rect width="283" height="26" fill="white" transform="translate(0 22)"/>
</clipPath>
<clipPath id="clip2_61_222">
<rect width="32" height="32" fill="white" transform="translate(14 18.8281)"/>
</clipPath>
</defs>
</svg>
